<svg id="Capa_1" enable-background="new 0 0 512 512" height="512" viewBox="0 0 512 512" width="512" xmlns="http://www.w3.org/2000/svg"><g><path d="m216 272h-60v-43.44c23.278-8.256 40-30.487 40-56.56 0-10.529-2.772-20.895-8.018-29.976l-34.663-60.026c-3.572-6.186-10.174-9.998-17.319-9.998s-13.747 3.812-17.319 9.999l-34.663 60.025c-5.246 9.081-8.018 19.447-8.018 29.976 0 26.073 16.722 48.303 40 56.56v43.44h-60c-11.046 0-20 8.954-20 20v200c0 11.046 8.954 20 20 20h160c11.046 0 20-8.954 20-20v-200c0-11.046-8.954-20-20-20zm-97.344-109.973 17.344-30.033 17.344 30.035c1.762 3.051 2.656 6.406 2.656 9.971 0 11.028-8.972 20-20 20s-20-8.972-20-20c0-3.565.894-6.92 2.656-9.973zm77.344 149.973v44.384l-120 30v-74.384zm-120 160v-44.385l120-30v74.385z"/><path d="m456 192h-60v-35.44c23.278-8.256 40-30.487 40-56.56 0-10.529-2.772-20.895-8.018-29.976l-34.663-60.025c-3.572-6.187-10.174-9.999-17.319-9.999s-13.747 3.812-17.319 9.999l-34.663 60.025c-5.246 9.081-8.018 19.447-8.018 29.976 0 26.073 16.722 48.303 40 56.56v35.44h-60c-11.046 0-20 8.954-20 20v280c0 11.046 8.954 20 20 20h160c11.046 0 20-8.954 20-20v-280c0-11.046-8.954-20-20-20zm-97.344-101.973 17.344-30.033 17.344 30.035c1.762 3.051 2.656 6.406 2.656 9.971 0 11.028-8.972 20-20 20s-20-8.972-20-20c0-3.565.894-6.92 2.656-9.973zm-42.656 257.588 120-30v38.769l-120 30zm120-115.615v44.384l-120 30v-74.384zm-120 240v-44.385l120-30v74.385z"/></g></svg>